<svg width="64" height="64" viewBox="0 0 64 64" fill="none" xmlns="http://www.w3.org/2000/svg">
<path d="M18.3794 36.2874L27.5558 27.1109L7.48437 7.07188C5.92794 5.51545 3.23661 5.93699 2.26385 7.94737C-0.0383714 12.7788 0.804694 18.7127 4.79304 22.7334L18.3794 36.2874ZM40.3639 30.4183C45.3251 32.7205 52.2966 31.0993 57.4522 25.9436C63.6455 19.7503 64.8453 10.8657 60.0787 6.09911C55.3446 1.36498 46.4599 2.5323 40.2342 8.72559C35.0786 13.8813 33.4573 20.8528 35.7595 25.8139L6.3819 55.1915C5.77561 55.7978 5.435 56.6201 5.435 57.4775C5.435 58.3349 5.77561 59.1572 6.3819 59.7635C6.98818 60.3698 7.81049 60.7104 8.6679 60.7104C9.52532 60.7104 10.3476 60.3698 10.9539 59.7635L31.0254 39.7569L51.0644 59.7959C51.3646 60.0961 51.721 60.3343 52.1132 60.4967C52.5054 60.6592 52.9258 60.7428 53.3504 60.7428C53.7749 60.7428 54.1953 60.6592 54.5876 60.4967C54.9798 60.3343 55.3362 60.0961 55.6364 59.7959C55.9366 59.4957 56.1747 59.1393 56.3372 58.7471C56.4997 58.3549 56.5833 57.9345 56.5833 57.5099C56.5833 57.0854 56.4997 56.665 56.3372 56.2727C56.1747 55.8805 55.9366 55.5241 55.6364 55.2239L35.5974 35.1849L40.3639 30.4183Z" fill="#2091F9"/>
</svg>
