<svg width="64" height="64" viewBox="0 0 64 64" fill="none" xmlns="http://www.w3.org/2000/svg">
<path d="M63 43.4343V54.9015C63 56.4221 62.3468 57.8805 61.1841 58.9557C60.0213 60.031 58.4443 60.6351 56.8 60.6351H44.4V54.9015C44.4 53.3809 43.7468 51.9225 42.5841 50.8472C41.4213 49.772 39.8443 49.1679 38.2 49.1679C36.5557 49.1679 34.9787 49.772 33.8159 50.8472C32.6532 51.9225 32 53.3809 32 54.9015V60.6351H19.6C17.9557 60.6351 16.3787 60.031 15.2159 58.9557C14.0532 57.8805 13.4 56.4221 13.4 54.9015V43.4343H7.2C5.55566 43.4343 3.97866 42.8303 2.81594 41.755C1.65321 40.6798 1 39.2214 1 37.7008C1 36.1801 1.65321 34.7218 2.81594 33.6465C3.97866 32.5713 5.55566 31.9672 7.2 31.9672H13.4V20.5C13.4 17.3466 16.19 14.7665 19.6 14.7665H32V9.03289C32 7.51225 32.6532 6.0539 33.8159 4.97864C34.9787 3.90339 36.5557 3.29932 38.2 3.29932C39.8443 3.29932 41.4213 3.90339 42.5841 4.97864C43.7468 6.0539 44.4 7.51225 44.4 9.03289V14.7665H56.8C58.4443 14.7665 60.0213 15.3705 61.1841 16.4458C62.3468 17.521 63 18.9794 63 20.5V31.9672H56.8C55.1557 31.9672 53.5787 32.5713 52.4159 33.6465C51.2532 34.7218 50.6 36.1801 50.6 37.7008C50.6 39.2214 51.2532 40.6798 52.4159 41.755C53.5787 42.8303 55.1557 43.4343 56.8 43.4343H63Z" fill="#2091F9"/>
</svg>
