<svg width="554" height="479" viewBox="0 0 554 479" fill="none" xmlns="http://www.w3.org/2000/svg">
<g clip-path="url(#clip0_230_4520)">
<g opacity="0.8">
<path opacity="0.8" d="M284.9 161.964C338.151 161.964 381.319 128.488 381.319 87.1934C381.319 45.8985 338.151 12.4224 284.9 12.4224C231.649 12.4224 188.48 45.8985 188.48 87.1934C188.48 128.488 231.649 161.964 284.9 161.964Z" fill="url(#paint0_linear_230_4520)"/>
</g>
<path d="M284.9 160.304C336.969 160.304 379.18 127.571 379.18 87.1934C379.18 46.8156 336.969 14.083 284.9 14.083C232.831 14.083 190.62 46.8156 190.62 87.1934C190.62 127.571 232.831 160.304 284.9 160.304Z" fill="#2A7CC7"/>
<path opacity="0.1" d="M205.861 95.3189C205.861 54.9415 248.066 22.2085 300.134 22.2085C316.299 22.1195 332.304 25.4264 347.113 31.9157C330.542 20.7126 308.863 13.905 285.137 13.905C233.07 13.905 190.857 46.638 190.857 87.0154C190.857 114.127 209.89 137.792 238.165 150.419C218.369 137.014 205.861 117.303 205.861 95.3189Z" fill="white"/>
<path opacity="0.2" d="M284.9 116.579L389.417 297.793L493.934 479H284.9H75.866L180.383 297.793L284.9 116.579Z" fill="#2A7CC7"/>
<g opacity="0.3">
<path opacity="0.3" d="M309.699 373.144L317.817 349.03C320.608 340.633 320.63 331.56 317.88 323.149C315.131 314.738 309.754 307.434 302.543 302.313L302.609 302.274C299.416 300.024 295.915 298.248 292.214 297.002L292.102 296.962L291.977 296.923C288.385 295.706 284.639 295.001 280.851 294.827C279.511 294.758 278.169 294.758 276.829 294.827C274.504 294.949 272.194 295.269 269.923 295.783C269.264 295.928 268.606 296.092 268.007 296.27C267.408 296.448 266.736 296.639 266.111 296.844C264.86 297.259 263.629 297.727 262.424 298.26C261.819 298.524 261.22 298.801 260.634 299.097C258.862 299.973 257.157 300.977 255.532 302.102C254.985 302.478 254.452 302.867 253.925 303.262C247.418 308.216 242.547 315.012 239.942 322.769L227.184 360.761C225.176 366.719 224.572 373.061 225.419 379.292C225.551 380.248 225.716 381.197 225.907 382.139C226.098 383.081 226.335 384.011 226.565 384.933C226.743 385.546 226.927 386.159 227.131 386.765C227.434 387.668 227.789 388.571 228.125 389.454C228.369 390.04 228.626 390.627 228.895 391.207C229.429 392.36 230.021 393.487 230.66 394.588C231.298 395.688 231.976 396.762 232.74 397.804C233.293 398.581 233.879 399.346 234.485 400.084C235.301 401.072 236.157 402.061 237.065 402.937C240.998 406.906 245.703 410.022 250.89 412.091L251.114 412.183C251.393 411.689 251.701 411.211 252.036 410.753C254.011 408.045 257.447 406.14 260.719 406.852C260.956 406.905 261.193 406.977 261.43 407.049C263.089 407.636 264.722 408.684 266.322 409.198C266.904 409.46 267.536 409.591 268.173 409.583C268.811 409.575 269.44 409.428 270.015 409.152C273.214 407.445 272.029 402.061 274.775 399.702C274.903 399.593 275.037 399.492 275.176 399.398C275.137 399.351 275.102 399.3 275.071 399.247C277.191 397.929 280.127 398.805 282.569 399.655C285.203 400.585 288.639 401.211 290.469 399.056C291.707 397.58 291.615 395.332 292.793 393.784C294.163 392.004 296.743 391.807 298.975 392.123L299.087 392.156C303.366 393.922 308.04 390.989 307.711 386.37C307.323 380.208 309.258 374.402 309.699 373.144Z" fill="url(#paint1_linear_230_4520)"/>
</g>
<path d="M252.78 408.723C254.702 406.087 258 404.242 261.16 404.96C264.32 405.679 267.316 408.69 270.127 407.181C273.971 405.125 271.246 397.566 277.487 397.006C278.787 396.92 280.09 397.146 281.286 397.665C283.919 398.739 288.04 399.952 290.068 397.533C291.259 396.11 291.174 393.942 292.313 392.466C293.629 390.752 296.138 390.535 298.277 390.864L298.382 390.897C302.51 392.604 307.026 389.77 306.704 385.315C306.289 379.384 308.172 373.796 308.58 372.583L316.401 349.314C319.728 339.338 318.974 328.45 314.305 319.029C309.636 309.608 301.431 302.421 291.483 299.038C281.519 295.712 270.644 296.47 261.236 301.145C251.828 305.82 244.65 314.032 241.272 323.988L228.941 360.583C225.737 370.207 226.325 380.694 230.585 389.899C234.846 399.104 242.458 406.332 251.865 410.107C252.142 409.628 252.448 409.166 252.78 408.723Z" fill="white"/>
<path opacity="0.2" d="M267.356 324.621C269.723 324.621 271.641 322.7 271.641 320.331C271.641 317.961 269.723 316.041 267.356 316.041C264.989 316.041 263.07 317.961 263.07 320.331C263.07 322.7 264.989 324.621 267.356 324.621Z" fill="black"/>
<path opacity="0.2" d="M291.727 332.825C294.094 332.825 296.013 330.905 296.013 328.535C296.013 326.166 294.094 324.245 291.727 324.245C289.36 324.245 287.441 326.166 287.441 328.535C287.441 330.905 289.36 332.825 291.727 332.825Z" fill="black"/>
<path d="M278.153 342.107C279.285 338.74 278.384 335.398 276.14 334.642C273.897 333.887 271.161 336.003 270.029 339.37C268.897 342.737 269.798 346.079 272.042 346.834C274.285 347.59 277.021 345.474 278.153 342.107Z" fill="#E0E0E0"/>
<path d="M364.249 327.711C367.797 327.711 370.674 324.832 370.674 321.28C370.674 317.727 367.797 314.848 364.249 314.848C360.7 314.848 357.823 317.727 357.823 321.28C357.823 324.832 360.7 327.711 364.249 327.711Z" fill="white"/>
<path d="M384.605 314.38C386.379 314.38 387.817 312.94 387.817 311.164C387.817 309.388 386.379 307.948 384.605 307.948C382.83 307.948 381.392 309.388 381.392 311.164C381.392 312.94 382.83 314.38 384.605 314.38Z" fill="white"/>
<g opacity="0.5">
<g opacity="0.3">
<path opacity="0.3" d="M318.258 114.153L326.375 90.0402C329.166 81.6429 329.189 72.57 326.439 64.159C323.689 55.7479 318.312 48.4437 311.102 43.3232L311.167 43.2836C307.975 41.0335 304.473 39.2578 300.772 38.0116L300.66 37.972L300.535 37.9325C296.943 36.7162 293.198 36.0108 289.409 35.8368C288.07 35.7676 286.727 35.7676 285.387 35.8368C283.062 35.9586 280.752 36.2783 278.481 36.7924C277.823 36.9374 277.165 37.1021 276.565 37.2801C275.966 37.458 275.295 37.6491 274.669 37.8534C273.419 38.2686 272.187 38.7365 270.983 39.2703C270.377 39.5339 269.778 39.8106 269.192 40.1072C267.42 40.9829 265.715 41.9872 264.09 43.1123C263.544 43.4879 263.01 43.8767 262.484 44.2721C255.976 49.2258 251.105 56.0215 248.501 63.7788L235.742 101.771C233.734 107.729 233.13 114.071 233.978 120.302C234.109 121.257 234.274 122.206 234.465 123.149C234.656 124.091 234.893 125.02 235.123 125.943C235.301 126.556 235.485 127.169 235.689 127.775C235.992 128.678 236.348 129.581 236.684 130.464C236.927 131.05 237.184 131.637 237.454 132.217C237.987 133.37 238.58 134.497 239.218 135.597C239.857 136.698 240.535 137.772 241.298 138.813C241.851 139.591 242.437 140.356 243.043 141.094C243.859 142.082 244.715 143.038 245.624 143.947C249.556 147.915 254.262 151.031 259.449 153.101L259.673 153.193C259.951 152.698 260.259 152.221 260.594 151.763C262.569 149.054 266.006 147.15 269.278 147.862C269.515 147.914 269.752 147.987 269.989 148.059C271.648 148.646 273.28 149.694 274.88 150.208C275.462 150.469 276.094 150.601 276.732 150.593C277.37 150.585 277.998 150.438 278.573 150.162C281.773 148.455 280.588 143.071 283.333 140.711C283.461 140.603 283.595 140.501 283.735 140.408C283.696 140.36 283.661 140.31 283.629 140.257C285.749 138.939 288.685 139.815 291.128 140.665C293.761 141.594 297.198 142.22 299.028 140.066C300.265 138.589 300.173 136.342 301.352 134.793C302.721 133.014 305.302 132.816 307.533 133.133H307.645C311.924 134.899 316.599 131.966 316.27 127.347C315.881 121.218 317.817 115.412 318.258 114.153Z" fill="url(#paint2_linear_230_4520)"/>
</g>
<path opacity="0.5" d="M261.338 149.733C263.26 147.097 266.559 145.252 269.719 145.97C272.879 146.689 275.874 149.7 278.685 148.191C282.53 146.135 279.804 138.576 286.045 138.016C287.346 137.93 288.648 138.156 289.844 138.675C292.477 139.749 296.598 140.962 298.626 138.543C299.818 137.12 299.732 134.952 300.871 133.475C302.188 131.762 304.696 131.545 306.835 131.874L306.941 131.907C311.069 133.614 315.585 130.78 315.262 126.325C314.847 120.394 316.73 114.806 317.138 113.593L324.959 90.3236C328.286 80.3481 327.532 69.46 322.863 60.0391C318.194 50.6182 309.989 43.4308 300.041 40.0478C290.077 36.7221 279.203 37.4795 269.794 42.1545C260.386 46.8295 253.209 55.0421 249.83 64.9979L237.5 101.593C234.295 111.217 234.883 121.703 239.144 130.908C243.404 140.113 251.016 147.342 260.423 151.117C260.701 150.638 261.006 150.176 261.338 149.733Z" fill="white"/>
<path opacity="0.2" d="M275.914 65.6306C278.281 65.6306 280.199 63.7098 280.199 61.3404C280.199 58.9711 278.281 57.0503 275.914 57.0503C273.547 57.0503 271.628 58.9711 271.628 61.3404C271.628 63.7098 273.547 65.6306 275.914 65.6306Z" fill="black"/>
<path opacity="0.2" d="M300.285 73.8352C302.652 73.8352 304.571 71.9144 304.571 69.545C304.571 67.1756 302.652 65.2549 300.285 65.2549C297.918 65.2549 296 67.1756 296 69.545C296 71.9144 297.918 73.8352 300.285 73.8352Z" fill="black"/>
</g>
<path opacity="0.1" d="M375.434 65.5251C376.658 70.2604 377.275 75.1322 377.271 80.0233C377.271 120.401 335.065 153.134 282.997 153.134C240.384 153.107 204.379 131.189 192.733 101.112C201.384 134.569 239.475 159.763 285.17 159.763C337.238 159.763 379.45 127.03 379.45 86.6529C379.436 79.4215 378.075 72.2562 375.434 65.5251Z" fill="black"/>
<g opacity="0.8">
<path opacity="0.8" d="M284.9 170.083C392.587 170.083 479.885 147.244 479.885 119.069C479.885 90.8953 392.587 68.0557 284.9 68.0557C177.213 68.0557 89.9148 90.8953 89.9148 119.069C89.9148 147.244 177.213 170.083 284.9 170.083Z" fill="url(#paint3_linear_230_4520)"/>
</g>
<path d="M284.9 69.7427C180.765 69.7427 96.3401 91.826 96.3401 119.076H473.46C473.46 91.826 389.035 69.7427 284.9 69.7427Z" fill="white"/>
<path d="M284.9 168.403C389.035 168.403 473.46 146.32 473.46 119.076H96.3401C96.3401 146.32 180.765 168.403 284.9 168.403Z" fill="white"/>
<path opacity="0.05" d="M284.9 168.403C389.035 168.403 473.46 146.32 473.46 119.076H96.3401C96.3401 146.32 180.765 168.403 284.9 168.403Z" fill="black"/>
<path opacity="0.05" d="M363.558 106.199H206.242C199.981 106.199 194.906 111.28 194.906 117.547V120.592C194.906 126.859 199.981 131.94 206.242 131.94H363.558C369.819 131.94 374.894 126.859 374.894 120.592V117.547C374.894 111.28 369.819 106.199 363.558 106.199Z" fill="black"/>
<path opacity="0.5" d="M88.6443 38.0974C88.1004 37.8598 87.6625 37.4306 87.4138 36.8913C87.165 36.3519 87.1226 35.7399 87.2947 35.1714C87.3224 35.0836 87.34 34.993 87.3474 34.9012C87.3642 34.6404 87.2964 34.3812 87.154 34.1621C87.0117 33.943 86.8025 33.7758 86.5575 33.6854C86.3125 33.595 86.045 33.5863 85.7946 33.6605C85.5443 33.7347 85.3246 33.8879 85.1683 34.0972C85.1156 34.1711 85.0714 34.2507 85.0367 34.3345C84.8005 34.8799 84.3719 35.3191 83.8327 35.5683C83.2935 35.8175 82.6816 35.8592 82.1137 35.6854C82.0258 35.6585 81.9353 35.6408 81.8437 35.6327C81.5832 35.6159 81.3242 35.6838 81.1054 35.8263C80.8865 35.9687 80.7195 36.1782 80.6292 36.4234C80.5389 36.6686 80.5302 36.9365 80.6043 37.1871C80.6784 37.4377 80.8315 37.6576 81.0406 37.814C81.1133 37.8702 81.193 37.9167 81.2776 37.9524C81.8215 38.19 82.2594 38.6192 82.5081 39.1585C82.7569 39.6979 82.7993 40.3099 82.6272 40.8784C82.6002 40.9641 82.5825 41.0525 82.5745 41.142C82.5561 41.4034 82.6228 41.6637 82.7645 41.884C82.9063 42.1043 83.1155 42.2727 83.3609 42.3639C83.6063 42.4552 83.8746 42.4645 84.1256 42.3903C84.3767 42.3162 84.597 42.1626 84.7536 41.9526C84.8077 41.8773 84.8519 41.7953 84.8852 41.7088C85.1273 41.1694 85.5583 40.7374 86.0969 40.4946C86.6355 40.2517 87.2443 40.2148 87.8082 40.3907C87.8961 40.4177 87.9866 40.4354 88.0782 40.4435C88.3387 40.4603 88.5977 40.3924 88.8165 40.2499C89.0354 40.1074 89.2024 39.898 89.2927 39.6528C89.383 39.4075 89.3917 39.1397 89.3176 38.8891C89.2435 38.6385 89.0904 38.4186 88.8813 38.2622C88.8101 38.1967 88.7304 38.1413 88.6443 38.0974Z" fill="#4D8AF0"/>
<path opacity="0.5" d="M423.736 239.754C423.198 239.51 422.767 239.079 422.525 238.54C422.283 238.001 422.245 237.392 422.419 236.828C422.447 236.74 422.465 236.649 422.472 236.557C422.489 236.297 422.421 236.037 422.279 235.818C422.136 235.599 421.927 235.432 421.682 235.342C421.437 235.251 421.169 235.243 420.919 235.317C420.669 235.391 420.449 235.544 420.293 235.753C420.24 235.827 420.196 235.907 420.161 235.991C419.925 236.536 419.496 236.975 418.957 237.225C418.418 237.474 417.806 237.515 417.238 237.342C417.15 237.315 417.06 237.297 416.968 237.289C416.708 237.272 416.449 237.34 416.23 237.483C416.011 237.625 415.844 237.834 415.754 238.08C415.663 238.325 415.655 238.593 415.729 238.843C415.803 239.094 415.956 239.314 416.165 239.47C416.238 239.526 416.317 239.573 416.402 239.609C416.94 239.852 417.371 240.284 417.613 240.822C417.855 241.361 417.893 241.97 417.719 242.535C417.692 242.62 417.674 242.709 417.666 242.798C417.648 243.06 417.714 243.32 417.856 243.54C417.998 243.761 418.207 243.929 418.452 244.02C418.698 244.111 418.966 244.121 419.217 244.047C419.468 243.972 419.689 243.819 419.845 243.609C419.899 243.534 419.944 243.452 419.977 243.365C420.219 242.826 420.65 242.394 421.188 242.151C421.727 241.908 422.336 241.871 422.9 242.047C422.988 242.074 423.078 242.092 423.17 242.1C423.43 242.117 423.689 242.049 423.908 241.906C424.127 241.764 424.294 241.554 424.384 241.309C424.475 241.064 424.483 240.796 424.409 240.545C424.335 240.295 424.182 240.075 423.973 239.918C423.902 239.853 423.822 239.798 423.736 239.754Z" fill="#4D8AF0"/>
<path opacity="0.5" d="M53.7525 333.333C53.2086 333.095 52.7707 332.666 52.5219 332.127C52.2732 331.588 52.2308 330.976 52.4029 330.407C52.4305 330.319 52.4482 330.229 52.4556 330.137C52.4724 329.876 52.4045 329.617 52.2622 329.398C52.1199 329.179 51.9106 329.011 51.6657 328.921C51.4207 328.831 51.1531 328.822 50.9028 328.896C50.6525 328.97 50.4328 329.123 50.2765 329.333C50.2238 329.407 50.1796 329.486 50.1448 329.57C49.9086 330.115 49.48 330.555 48.9409 330.804C48.4017 331.053 47.7897 331.095 47.2218 330.921C47.1339 330.894 47.0435 330.876 46.9519 330.868C46.6914 330.851 46.4324 330.919 46.2135 331.062C45.9946 331.204 45.8276 331.414 45.7373 331.659C45.6471 331.904 45.6383 332.172 45.7125 332.423C45.7866 332.673 45.9396 332.893 46.1487 333.05C46.2214 333.106 46.3011 333.152 46.3857 333.188C46.9296 333.426 47.3675 333.855 47.6163 334.394C47.865 334.933 47.9074 335.545 47.7353 336.114C47.7083 336.2 47.6906 336.288 47.6826 336.378C47.6642 336.639 47.7309 336.899 47.8727 337.12C48.0144 337.34 48.2237 337.508 48.469 337.6C48.7144 337.691 48.9827 337.7 49.2338 337.626C49.4848 337.552 49.7052 337.398 49.8617 337.188C49.9158 337.113 49.9601 337.031 49.9934 336.944C50.2354 336.405 50.6665 335.973 51.2051 335.73C51.7436 335.487 52.3525 335.45 52.9164 335.626C53.0043 335.653 53.0947 335.671 53.1863 335.679C53.4468 335.696 53.7058 335.628 53.9247 335.486C54.1435 335.343 54.3106 335.134 54.4009 334.888C54.4911 334.643 54.4999 334.375 54.4257 334.125C54.3516 333.874 54.1986 333.654 53.9895 333.498C53.9183 333.432 53.8386 333.377 53.7525 333.333Z" fill="#4D8AF0"/>
<path opacity="0.5" d="M17.5443 115.201C17.0064 114.958 16.5758 114.526 16.3333 113.987C16.0909 113.449 16.0533 112.84 16.2276 112.275C16.2552 112.187 16.2729 112.097 16.2803 112.005C16.2971 111.744 16.2293 111.485 16.0869 111.266C15.9446 111.047 15.7353 110.88 15.4904 110.789C15.2454 110.699 14.9778 110.69 14.7275 110.764C14.4772 110.838 14.2575 110.992 14.1012 111.201C14.0485 111.275 14.0043 111.354 13.9695 111.438C13.7333 111.984 13.3047 112.423 12.7656 112.672C12.2264 112.921 11.6144 112.963 11.0465 112.789C10.9586 112.762 10.8682 112.745 10.7766 112.736C10.5161 112.72 10.2571 112.788 10.0382 112.93C9.81936 113.073 9.65234 113.282 9.56205 113.527C9.47176 113.772 9.46303 114.04 9.53716 114.291C9.6113 114.541 9.76432 114.761 9.97344 114.918C10.0462 114.974 10.1258 115.02 10.2104 115.056C10.7544 115.294 11.1922 115.723 11.441 116.262C11.6898 116.802 11.7321 117.414 11.56 117.982C11.533 118.068 11.5154 118.156 11.5074 118.246C11.4889 118.507 11.5556 118.767 11.6974 118.988C11.8391 119.208 12.0484 119.376 12.2937 119.468C12.5391 119.559 12.8074 119.568 13.0585 119.494C13.3096 119.42 13.5299 119.266 13.6864 119.056C13.7405 118.981 13.7848 118.899 13.8181 118.813C14.0601 118.273 14.4912 117.841 15.0298 117.598C15.5684 117.355 16.1772 117.319 16.7411 117.495C16.829 117.521 16.9195 117.539 17.011 117.547C17.2716 117.564 17.5305 117.496 17.7494 117.354C17.9683 117.211 18.1353 117.002 18.2256 116.757C18.3159 116.511 18.3246 116.243 18.2505 115.993C18.1763 115.742 18.0233 115.522 17.8142 115.366C17.7329 115.298 17.6419 115.242 17.5443 115.201Z" fill="#4D8AF0"/>
<path opacity="0.5" d="M417.153 4.48778C416.615 4.24437 416.184 3.81274 415.942 3.27397C415.699 2.73519 415.662 2.12635 415.836 1.56179C415.863 1.47399 415.881 1.38335 415.888 1.29159C415.905 1.03079 415.837 0.771537 415.695 0.552452C415.553 0.333368 415.344 0.16618 415.099 0.0757985C414.854 -0.0145833 414.586 -0.0233211 414.336 0.0508856C414.085 0.125092 413.866 0.278271 413.709 0.487603C413.657 0.561443 413.613 0.641034 413.578 0.724847C413.336 1.26425 412.905 1.6962 412.366 1.93905C411.828 2.18191 411.219 2.21884 410.655 2.04286C410.567 2.01591 410.476 1.99823 410.385 1.99014C410.101 1.93055 409.805 1.97484 409.551 2.11494C409.297 2.25505 409.102 2.48169 409.001 2.75368C408.9 3.02568 408.899 3.32499 409 3.59724C409.1 3.86949 409.295 4.09662 409.549 4.23736C409.621 4.29351 409.701 4.34003 409.786 4.37575C410.324 4.61916 410.754 5.05079 410.997 5.58957C411.239 6.12834 411.277 6.73719 411.102 7.30175C411.075 7.38746 411.058 7.47584 411.05 7.56535C411.022 7.83672 411.086 8.10954 411.233 8.33975C411.379 8.56995 411.598 8.74407 411.856 8.83399C412.113 8.9239 412.393 8.92435 412.65 8.83525C412.908 8.74615 413.128 8.57272 413.275 8.34298C413.329 8.26766 413.373 8.18572 413.407 8.09915C413.649 7.55975 414.08 7.1278 414.618 6.88494C415.157 6.64209 415.766 6.60516 416.33 6.78113C416.417 6.80809 416.508 6.82576 416.599 6.83385C416.86 6.85067 417.119 6.78278 417.338 6.6403C417.557 6.49781 417.724 6.28836 417.814 6.04315C417.904 5.79793 417.913 5.53008 417.839 5.27949C417.765 5.0289 417.612 4.809 417.403 4.65253C417.327 4.58611 417.243 4.53065 417.153 4.48778Z" fill="#4D8AF0"/>
<g opacity="0.5">
<path opacity="0.5" d="M74.8917 169.925H72.9167V181.128H74.8917V169.925Z" fill="#47E6B1"/>
<path opacity="0.5" d="M79.5 176.515V174.538H68.3083V176.515H79.5Z" fill="#47E6B1"/>
</g>
<g opacity="0.5">
<path opacity="0.5" d="M548.892 117.205H546.917V128.408H548.892V117.205Z" fill="#47E6B1"/>
<path opacity="0.5" d="M553.5 123.795V121.818H542.308V123.795H553.5Z" fill="#47E6B1"/>
</g>
<g opacity="0.5">
<path opacity="0.5" d="M483.058 301.068H481.083V312.271H483.058V301.068Z" fill="#47E6B1"/>
<path opacity="0.5" d="M487.667 307.658V305.681H476.475V307.658H487.667Z" fill="#47E6B1"/>
</g>
<path opacity="0.5" d="M476.475 57.8939C478.656 57.8939 480.425 56.1236 480.425 53.9399C480.425 51.7561 478.656 49.9858 476.475 49.9858C474.293 49.9858 472.525 51.7561 472.525 53.9399C472.525 56.1236 474.293 57.8939 476.475 57.8939Z" fill="#F55F44"/>
<path opacity="0.5" d="M4.45 12.4223C6.63153 12.4223 8.4 10.652 8.4 8.46821C8.4 6.28445 6.63153 4.51416 4.45 4.51416C2.26848 4.51416 0.5 6.28445 0.5 8.46821C0.5 10.652 2.26848 12.4223 4.45 12.4223Z" fill="#F55F44"/>
<path opacity="0.5" d="M122.95 239.78C125.132 239.78 126.9 238.01 126.9 235.826C126.9 233.642 125.132 231.872 122.95 231.872C120.768 231.872 119 233.642 119 235.826C119 238.01 120.768 239.78 122.95 239.78Z" fill="#F55F44"/>
<path opacity="0.05" d="M154.55 106.384C166.912 106.384 176.933 104.318 176.933 101.771C176.933 99.2228 166.912 97.1575 154.55 97.1575C142.188 97.1575 132.167 99.2228 132.167 101.771C132.167 104.318 142.188 106.384 154.55 106.384Z" fill="black"/>
<path opacity="0.05" d="M154.55 141.311C166.912 141.311 176.933 139.246 176.933 136.698C176.933 134.15 166.912 132.085 154.55 132.085C142.188 132.085 132.167 134.15 132.167 136.698C132.167 139.246 142.188 141.311 154.55 141.311Z" fill="black"/>
<path opacity="0.05" d="M409.325 106.384C421.687 106.384 431.708 104.318 431.708 101.771C431.708 99.2228 421.687 97.1575 409.325 97.1575C396.963 97.1575 386.942 99.2228 386.942 101.771C386.942 104.318 396.963 106.384 409.325 106.384Z" fill="black"/>
<path opacity="0.05" d="M409.325 141.311C421.687 141.311 431.708 139.246 431.708 136.698C431.708 134.15 421.687 132.085 409.325 132.085C396.963 132.085 386.942 134.15 386.942 136.698C386.942 139.246 396.963 141.311 409.325 141.311Z" fill="black"/>
<path opacity="0.05" d="M284.9 86.6133C297.262 86.6133 307.283 84.548 307.283 82.0003C307.283 79.4525 297.262 77.3872 284.9 77.3872C272.538 77.3872 262.517 79.4525 262.517 82.0003C262.517 84.548 272.538 86.6133 284.9 86.6133Z" fill="black"/>
<path opacity="0.05" d="M301.358 38.5059C313.72 38.5059 323.742 36.4406 323.742 33.8928C323.742 31.3451 313.72 29.2798 301.358 29.2798C288.996 29.2798 278.975 31.3451 278.975 33.8928C278.975 36.4406 288.996 38.5059 301.358 38.5059Z" fill="black"/>
<path opacity="0.05" d="M258.567 58.2759C270.929 58.2759 280.95 56.2106 280.95 53.6629C280.95 51.1151 270.929 49.0498 258.567 49.0498C246.205 49.0498 236.183 51.1151 236.183 53.6629C236.183 56.2106 246.205 58.2759 258.567 58.2759Z" fill="black"/>
<path opacity="0.05" d="M340.858 66.8431C353.22 66.8431 363.242 64.7777 363.242 62.23C363.242 59.6823 353.22 57.6169 340.858 57.6169C328.496 57.6169 318.475 59.6823 318.475 62.23C318.475 64.7777 328.496 66.8431 340.858 66.8431Z" fill="black"/>
<path opacity="0.05" d="M284.9 155.15C297.262 155.15 307.283 153.085 307.283 150.537C307.283 147.989 297.262 145.924 284.9 145.924C272.538 145.924 262.517 147.989 262.517 150.537C262.517 153.085 272.538 155.15 284.9 155.15Z" fill="black"/>
</g>
<defs>
<linearGradient id="paint0_linear_230_4520" x1="284.9" y1="161.971" x2="284.9" y2="12.4224" gradientUnits="userSpaceOnUse">
<stop stop-color="#808080" stop-opacity="0.25"/>
<stop offset="0.54" stop-color="#808080" stop-opacity="0.12"/>
<stop offset="1" stop-color="#808080" stop-opacity="0.1"/>
</linearGradient>
<linearGradient id="paint1_linear_230_4520" x1="-31006" y1="226868" x2="-24033.6" y2="206189" gradientUnits="userSpaceOnUse">
<stop stop-color="#808080" stop-opacity="0.25"/>
<stop offset="0.54" stop-color="#808080" stop-opacity="0.12"/>
<stop offset="1" stop-color="#808080" stop-opacity="0.1"/>
</linearGradient>
<linearGradient id="paint2_linear_230_4520" x1="-26964.7" y1="181181" x2="-19992.3" y2="160503" gradientUnits="userSpaceOnUse">
<stop stop-color="#808080" stop-opacity="0.25"/>
<stop offset="0.54" stop-color="#808080" stop-opacity="0.12"/>
<stop offset="1" stop-color="#808080" stop-opacity="0.1"/>
</linearGradient>
<linearGradient id="paint3_linear_230_4520" x1="168557" y1="26400.4" x2="168557" y2="10604.4" gradientUnits="userSpaceOnUse">
<stop stop-color="#808080" stop-opacity="0.25"/>
<stop offset="0.54" stop-color="#808080" stop-opacity="0.12"/>
<stop offset="1" stop-color="#808080" stop-opacity="0.1"/>
</linearGradient>
<clipPath id="clip0_230_4520">
<rect width="553" height="479" fill="white" transform="translate(0.5)"/>
</clipPath>
</defs>
</svg>
